<svg xmlns="http://www.w3.org/2000/svg" aria-hidden="true" style="position:absolute;width:0;height:0;overflow:hidden">
<defs>
<symbol id="Nika" viewBox="0 0 93 32"><path fill="#fff" d="m91.418 0-66.88 28.48C18.991 30.827 14.334 32 10.565 32c-4.267 0-7.36-1.493-9.28-4.48C.076 25.6-.279 23.164.218 20.213s1.813-6.098 3.947-9.44C5.943 8.071 8.858 4.515 12.912.106c-1.422 2.276-2.418 4.622-2.987 7.04-1.067 4.551-.107 7.893 2.88 10.027 1.422.996 3.378 1.493 5.867 1.493 1.991 0 4.231-.32 6.72-.96L91.419-.001z" style="fill:var(--color1, #fff)"/></symbol>
<symbol id="DW" viewBox="0 0 45 32"><path fill="#fff" d="M21.761 20.958c-10.044 0-18.221.097-18.221.193 0 .129 8.145.193 18.221.193s18.221-.097 18.221-.193c0-.097-8.177-.193-18.221-.193zM33.866 16.354h-.998L28.812 2.768l-4.217 13.586h-.998L19.766 1.416h.676l3.67 14.294h.032l4.41-14.229h.58l4.25 14.229 3.895-14.294h.676l-4.088 14.938zM36.377 0c-.419 0-.773.29-.934.74l-2.318 9.336L30.195 0h-2.318c-.386 0-.74.258-.934.74l-2.704 9.336L21.985.772V.74C21.824.289 21.47 0 21.051 0h-3.477l4.764 17.867.064.258h3.348l2.962-9.787 2.962 9.787h3.348L39.883.032h-3.509V0zM15.226 9.561c0 1.996.032 4.089-1.577 5.698-.966.966-2.415 1.513-4.121 1.513h-4.41V1.384h4.41c1.706 0 3.123.515 4.121 1.513 1.61 1.61 1.61 3.541 1.577 5.569v1.095zm-.29-7.79C13.777.612 12.103 0 10.107 0H3.475v18.093h6.632c1.996 0 3.67-.612 4.829-1.771 1.899-1.899 1.867-4.346 1.867-6.696V8.338c0-2.415 0-4.668-1.867-6.567zm-2.865 11.686c-.547.676-1.256.966-2.286.966H7.531V3.703h2.254c1.03 0 1.738.29 2.286.966s.676 1.738.676 4.314c-.032 2.575-.097 3.767-.676 4.475zm1.127-10.109c-.869-.869-2.125-1.32-3.638-1.32H5.761v14.036h3.767c1.545 0 2.801-.451 3.638-1.32 1.416-1.417 1.416-3.252 1.384-5.215V8.434c.032-1.964.064-3.67-1.352-5.087zM6.02 29.94l.708-4.7 1.159-.161-.193 1.32h1.159l-.129.966H7.565l-.386 2.511c-.032.161.032.225.225.225.225 0 .515-.097.773-.193l.258.773a3.172 3.172 0 0 1-1.417.354c-.74 0-1.095-.419-.998-1.095zm34.382 0 .708-4.7 1.159-.161-.193 1.32h1.159l-.129.966h-1.159l-.386 2.511c-.032.161.032.225.225.225.225 0 .515-.097.773-.193l.258.773a3.171 3.171 0 0 1-1.416.354c-.74 0-1.095-.419-.998-1.095zm-28.104-2.222c0-.032.032-.322-.258-.322s-.934.29-1.352.515l-.451 3.026H9.11l.676-4.475.966-.161v.547c.579-.322 1.288-.579 1.835-.579.644 0 .869.418.901.901 0 .193 0 .29-.032.451l-.483 3.284h-1.127l.451-3.187zm2.961 1.9c-.032.257-.064.483.354.483.483 0 1.159-.225 1.738-.515l.258.869c-.547.322-1.384.612-2.157.612-1.223 0-1.481-.676-1.352-1.61l.193-1.384c.161-1.062.644-1.706 2.028-1.706.869 0 1.481.451 1.513 1.191.032.805-.483 1.288-1.738 1.674-.547.161-.644.193-.869.258l.032.129zm1.546-2.061c0-.193-.193-.354-.483-.354-.515 0-.74.322-.805.74l-.064.451c.161-.032.193-.064.676-.193.483-.161.676-.354.676-.644zm19.573-.193c-.515.29-.869.515-1.32.805l-.418 2.801h-1.127l.676-4.475.966-.161-.032.676c.322-.225.773-.515 1.159-.676l.097 1.03zm.032 3.38.193-.837c.354.129.837.225 1.288.225.515 0 .612-.097.644-.386s0-.386-.708-.708c-.966-.483-1.095-.805-.998-1.513.129-.901.483-1.191 1.706-1.191.418 0 .998.097 1.384.225l-.161.869a5.256 5.256 0 0 0-1.191-.161c-.451 0-.58.032-.644.354-.032.322.032.386.547.644 1.062.58 1.256.74 1.159 1.449-.161 1.03-.483 1.352-1.771 1.352-.418-.032-1.03-.129-1.449-.322zm-14.358 0 .193-.837c.354.129.837.225 1.288.225.515 0 .612-.097.644-.386s0-.386-.708-.708c-.966-.483-1.095-.805-.998-1.513.129-.901.483-1.191 1.706-1.191.418 0 .998.097 1.384.225l-.161.869a5.256 5.256 0 0 0-1.191-.161c-.451 0-.58.032-.644.354-.032.322.032.386.547.644 1.062.58 1.256.74 1.159 1.449-.161 1.03-.483 1.352-1.771 1.352-.418-.032-1.062-.129-1.449-.322zm-3.799 0 .193-.837c.354.129.837.225 1.288.225.515 0 .612-.097.644-.386s0-.386-.708-.708c-.966-.483-1.095-.805-.998-1.513.129-.901.483-1.191 1.706-1.191.419 0 .998.097 1.384.225l-.161.869a5.256 5.256 0 0 0-1.191-.161c-.451 0-.58.032-.644.354-.032.322.032.386.547.644 1.062.58 1.256.74 1.159 1.449-.161 1.03-.483 1.352-1.771 1.352-.419-.032-1.062-.129-1.449-.322zM1.964 26.431l.161-1.159h2.479l.161-.998H1.159L0 32h1.127l.676-4.604h2.414l-.547 3.573h1.127l.676-4.539H1.964zm27.654 0 .161-1.159h2.479l.161-.998h-3.606L27.654 32h1.127l.676-4.604h2.382l-.547 3.573h1.127l.676-4.539h-3.477z" style="fill:var(--color1, #fff)"/></symbol>
<symbol id="layer1-3" viewBox="0 0 275 32"><path fill="#fff" d="M35.382 31.354h9.995L50.736.684h-9.995l-1.976 10.983H30.1L32.076.684h-9.995l-5.359 30.67h9.995l2.014-11.477h8.665l-2.014 11.477zM56.399.646l-3.04 17.064a19.594 19.594 0 0 0-.38 3.838c0 9.045 7.905 10.413 12.656 10.413 9.957 0 14.252-3.306 15.81-12.238L84.789.607h-9.995l-2.85 16.038c-.912 5.017-1.558 7.639-5.283 7.639-2.432 0-3.611-1.292-3.611-3.952 0-1.026.152-2.28.456-3.839L66.394.607h-9.995v.038zM137.615 31.354h9.995l1.406-7.905h4.713c8.703 0 13.53-4.712 13.53-13.302 0-6.043-4.181-9.501-11.516-9.501h-12.77l-5.359 30.708zm15.582-15.468h-2.888l1.33-7.221h2.698c2.204 0 3.382 1.102 3.382 3.116 0 2.546-1.71 4.104-4.523 4.104zM186.68 0c-10.87 0-17.37 7.031-17.37 18.85 0 8.209 5.17 13.15 13.835 13.15 10.869 0 17.368-7.031 17.368-18.85C200.55 4.903 195.382 0 186.679 0zm-2.926 24.057c-2.586 0-4.106-1.862-4.106-4.979 0-1.178.115-2.204.342-3.382.76-4.028 2.053-7.715 6.118-7.715 2.584 0 4.106 1.862 4.106 4.979 0 1.178-.115 2.204-.342 3.382-.76 3.99-2.053 7.715-6.118 7.715zM235.288 31.354h9.995l3.952-22.461h7.525l1.445-8.209h-25.578l-1.445 8.209h7.981l-3.875 22.461zM218.717 12.009c-3.154-.988-4.446-1.406-4.446-2.888 0-.988.646-2.166 2.547-2.166 1.405 0 2.584.798 3.04 1.976l8.818-2.394C227.649 2.204 223.924 0 217.502 0c-12.085 0-13.035 8.095-13.035 10.565 0 5.017 2.661 8.095 8.437 9.691 1.52.418 3.269.874 3.269 2.546 0 1.33-.989 2.166-2.699 2.166-1.558 0-3.23-.912-3.8-2.508l-8.702 2.356c.949 4.561 5.245 7.145 11.971 7.145 5.13 0 13.72-1.368 13.72-10.641.037-4.636-2.586-7.677-7.944-9.311zM11.135 31.354 16.532.684H0v30.67h11.135zM262.499.684l-5.358 30.67h16.531V.684h-11.173zM96.722 22.309h8.399l1.368-7.715H98.09l.95-5.701h11.744l1.444-8.247H90.489L85.13 31.354h9.995l1.596-9.045zM122.908 22.309h8.437l1.368-7.715h-8.399l.95-5.701h11.743l1.444-8.247h-21.739l-5.359 30.708h9.995l1.558-9.045z" style="fill:var(--color1, #fff)"/></symbol>
<symbol id="Nativ" viewBox="0 0 70 32"><path fill="#fff" d="m22.845 29.69.028-.057.028.057c.342.57.599 1.027 1.027 1.084.399-.086.485-.513.599-.941 0-.057.028-.086.028-.143-.228-.086-.399-.257-.485-.342-.029.086-.029.171-.029.228-.028.228-.057.342-.143.342-.028 0-.028 0-.057-.028-.257-.171-.57-.856-.599-.884v-.057c.171-.314.342-.656.513-.97a7.08 7.08 0 0 1 .456-.856l-.656-.342c-.057.285-.2.684-.314 1.027-.057.171-.114.314-.143.428l-.028.143-.029-.143c-.143-.513-.257-1.768-.285-1.825v-.028h1.055l.57.028v-.542l-.599.028h-1.055v-.856h-.628c0 .085.028.314.057.456l.028.371h-1.968l-.856.028v.542l.799-.028h1.968v.028c.086.77.314 2.139.485 2.624v.057c-.314.57-1.084 1.198-1.312 1.369.114.057.314.171.542.399.143-.171.713-.77.998-1.198z" style="fill:var(--color1, #fff)"/><path fill="#fff" d="M22.018 29.633v-.513c-.684.257-1.911.456-2.738.513.028.114.143.456.228.684l2.51-.684zM21.818 26.98l-.57.029h-.884l-.57-.029.028.513v.856l-.028.571.599-.029h.856l.542.029-.029-.656v-.77l.057-.513zm-.542 1.455h-.913v-.913h.913v.913zM23.13 25.298l.399.485.485-.285-.428-.456-.456.257z" style="fill:var(--color1, #fff)"/><path fill="#fff" d="m25.326 31.857-.028-.827v-5.932l.028-.799-.827.057h-5.162l-.856-.028.028.913v5.875l-.028.884h.656v-.456h5.561v.314h.628zm-6.189-.884v-6.075h5.561v6.075h-5.561zM34.11 28.806c.171 1.198 1.198 2.253 1.711 2.453.143-.399.399-.656.542-.77-1.654-.684-1.768-2.053-1.768-2.053v-.029l.029-.028c.399-.314.856-.57 1.055-.656l-.656-.542c-.628.57-1.597 1.255-1.626 1.255l-.057.057-.028-.057c-.285-.571-.856-.998-.884-.998l-.086-.057.086-.057c.171-.114.628-.57.628-.57l.028-.029h1.426l.513.029v-.628l-.485.028h-3.365l-.656-.028v.628l.57-.029h1.084l-.114.114c-.513.542-1.512.998-2.795 1.34.228.171.342.456.399.57.799-.257 2.168-.998 2.196-.998h.057c.171.057.314.257.342.257l.028.057-.086-.028c-.913.97-2.424 1.397-2.909 1.54.2.171.314.456.371.57 1.141-.371 2.824-1.626 2.852-1.654l.057-.028.029.057c.028.029.171.2.171.314v.028l-.028.029c-.599.684-1.711 1.626-3.622 2.053.228.228.371.513.428.656 2.196-.799 3.337-2.054 3.337-2.054l.086-.114.028.143c.057.542 0 .941-.228 1.198-.285.314-.713.314-.941.314.171.314.285.656.314.799.228-.057 1.055-.314 1.255-.684.285-.513.371-1.34.2-2.082v-.057l.513-.342v.086z" style="fill:var(--color1, #fff)"/><path fill="#fff" d="m29.319 24.87.028.513v.856l-.028.485h.713v-1.226h5.448v1.141h.684l-.029-.57v-.684l.029-.513-.599.028h-2.339v-.057c-.057-.314-.2-.684-.228-.827l-.77.143c.114.314.171.656.171.684v.086h-2.481l-.599-.057zM42.752 30.717c0 .285 0 .542.171.742.257.257.856.342 1.911.285 1.911-.086 1.968-.228 2.282-1.112.028-.057.028-.114.057-.171-.314-.143-.542-.314-.656-.399-.171 1.055-.684 1.055-1.626 1.084h-.599c-.542 0-.884-.143-.884-.884v-2.681l.884-.371v2.31l-.028.77h.684l-.028-.77v-2.51l1.027-.342v1.626c-.057.485-.2.627-.684.627.171.257.228.57.257.713.2-.028.97-.143 1.027-.741.028-.314.057-2.824.057-3.194-.114.028-.399.171-.599.257l-1.084.428v-1.398l.028-.856h-.684l.028.856v1.597l-.884.285v-.913l.029-.684h-.742l.028.684v1.226h-.057c-.285.085-.628.171-.77.2l.171.685c.114-.057.342-.143.542-.228l.086-.057v2.795a.185.185 0 0 1 .057.143z" style="fill:var(--color1, #fff)"/><path fill="#fff" d="M42.039 30.289v-.713l-.856.399V27.18h.257c.171 0 .428.029.542.029v-.713c-.114 0-.371.028-.513.028h-.285v-1.397c0-.143.028-.456.028-.599h-.684c0 .114.028.399.028.599v1.426h-.257c-.257 0-.399 0-.599-.029v.685c.114 0 .399-.029.599-.029h.285v2.966l-.028.028c-.228.114-.57.2-.827.228.057.143.2.485.257.913.171-.2.827-.57 2.053-1.027zM52.791 30.431c0-.285-.028-.628-.028-.77l-1.027.485V27.95h.399l.399.028v-.713l-.428.028h-.371v-1.939h.57l.342.028v-.684l-.371.028h-1.54l-.485-.028v.684l.513-.028h.399v1.939h-.456l-.428-.057v.713l.399-.028h.485v2.367h-.029c-.513.228-.913.314-1.027.314l.2.856c1.255-.57 2.31-.97 2.481-1.027z" style="fill:var(--color1, #fff)"/><path fill="#fff" d="M57.469 31.8v-.684l-.656.029H55.33v-1.027h1.084l.599.029v-.656l-.628.028H55.33v-.97h1.027l.684.028-.028-.542v-2.909l.028-.713-.713.028h-2.567l-.656-.028.028.799v2.766l-.028.628.684-.028h.97v.97h-.97l-.57-.028v.628l.599-.029h.941v1.027h-1.654l-.627-.029v.684l.627-.028h3.622l.742.028zm-2.111-6.788h1.055v1.198h-1.055v-1.198zm0 1.74h1.055v1.226h-1.055v-1.226zm-.599 1.227h-.998v-1.226h.998v1.226zm0-1.797h-.998v-1.198h.998v1.198z" style="fill:var(--color1, #fff)"/><path fill="#fc0" d="M0 0h14.374v20.592H0V0zm12.292 2.082H2.082V18.51h10.21V2.082z" style="fill:var(--color2, #fc0)"/><path fill="#fff" d="M23.815 9.241h-.884c-1.169-1.654-2.339-3.308-3.508-5.162v5.162h-.998V2.025h.884c1.169 1.654 2.339 3.28 3.48 5.134h.028V2.025h.998v7.216zM26.153 6.389c.285-.941.57-1.825.827-2.938h.028c.285 1.112.542 1.996.799 2.938h-1.654zm.485-4.364-2.481 7.187h1.055l.628-1.968h2.168l.57 1.968h1.369l-2.282-7.187h-1.027zM31.116 9.241V2.995h-1.882v-.97h5.02v.97h-1.911v6.246h-1.226zM35.879 2.025h-1.226v7.187h1.226V2.025zM39.672 8.328c-1.284 0-1.74-1.426-1.74-2.795 0-1.34.513-2.595 1.74-2.595s1.74 1.255 1.74 2.595c0 1.369-.456 2.795-1.74 2.795zm0 1.027c1.882 0 3.052-1.683 3.052-3.822 0-2.025-1.284-3.622-3.052-3.622S36.62 3.508 36.62 5.533c0 2.139 1.169 3.822 3.052 3.822zM48.856 9.241h-.884c-1.169-1.654-2.339-3.308-3.508-5.162v5.162h-.998V2.025h.884c1.169 1.654 2.339 3.28 3.48 5.134h.028V2.025h.998v7.216zM51.223 6.389c.285-.941.57-1.825.827-2.938h.028c.285 1.112.542 1.996.827 2.938h-1.683zm.456-4.364-2.481 7.187h1.084l.627-1.968h2.168l.57 1.968h1.369l-2.282-7.187h-1.055zM55.358 2.025h1.226v6.246h2.453v.97h-3.679V2.025zM23.045 15.258v2.966c-.656.257-1.34.428-2.054.428-2.11 0-3.451-1.654-3.451-3.765 0-1.968 1.34-3.679 3.508-3.679.656 0 1.34.257 1.74.542l-.399.856c-.342-.2-.856-.371-1.312-.371-1.312 0-2.225 1.027-2.225 2.681 0 1.711 1.027 2.709 2.082 2.709.342 0 .599-.028.856-.171V15.23h1.255v.028zM27.465 12.321h-2.053v1.968h2.025v.97h-2.025v2.339h2.424v.941h-3.651v-7.187h3.28v.97zM31.259 17.654c-1.284 0-1.74-1.426-1.74-2.795 0-1.312.513-2.595 1.74-2.595s1.74 1.255 1.74 2.595c0 1.369-.456 2.795-1.74 2.795zm0 1.027c1.882 0 3.052-1.683 3.052-3.822 0-2.025-1.284-3.622-3.052-3.622s-3.052 1.597-3.052 3.622c0 2.139 1.169 3.822 3.052 3.822zM40.242 15.258v2.966c-.656.257-1.34.428-2.054.428-2.11 0-3.451-1.654-3.451-3.765 0-1.968 1.34-3.679 3.508-3.679.656 0 1.34.257 1.74.542l-.399.856c-.342-.2-.856-.371-1.312-.371-1.312 0-2.225 1.027-2.225 2.681 0 1.711 1.027 2.709 2.082 2.709.342 0 .599-.028.856-.171V15.23h1.255v.028zM42.61 12.321h.542c.741 0 1.141.428 1.141 1.169 0 .97-.599 1.397-1.169 1.426-.114 0-.399.028-.513.028V12.32zm3.137 6.217-1.455-2.995c.799-.428 1.255-1.283 1.255-2.139 0-1.397-.856-2.082-2.225-2.082h-1.911v7.187h1.226V15.8h.57l1.169 2.709h1.369v.029zM47.772 15.715c.285-.941.57-1.825.827-2.938h.028c.285 1.112.542 1.996.799 2.938h-1.654zm.485-4.364-2.481 7.187h1.084l.627-1.968h2.168l.57 1.968h1.369l-2.282-7.187h-1.055zM53.191 18.538h-1.226v-7.187h1.911c1.369 0 2.225.684 2.225 2.082 0 1.226-.884 2.396-2.367 2.396h-.57v-.884c.057 0 .399-.029.542-.029.599-.028 1.169-.456 1.169-1.426 0-.742-.399-1.169-1.141-1.169h-.57v6.217h.028zM61.832 18.538h-1.226v-3.451h-2.567v3.451h-1.226v-7.187h1.226v2.767h2.567V11.38h1.226v7.159zM64.257 11.351h-1.226v7.187h1.226v-7.187zM69.79 12.663c-.285-.171-.799-.399-1.255-.399-1.255 0-2.168 1.027-2.168 2.681 0 1.711.998 2.709 2.196 2.709.485 0 .913-.143 1.226-.371l.342.884c-.371.257-1.027.485-1.626.485-2.111 0-3.451-1.654-3.451-3.765 0-1.968 1.312-3.679 3.48-3.679.628 0 1.226.257 1.654.542l-.399.913z" style="fill:var(--color1, #fff)"/></symbol>
<symbol id="ESPRIT" viewBox="0 0 142 32"><path fill="#fff" d="M51.815 22.687c0-4.8-2.38-7.426-10.995-8.821v3.405c5.949 1.026 7.467 2.584 7.426 5.538-.041 2.831-2.092 5.703-8.615 5.703-5.497 0-8.656-2.913-9.313-6.974h-3.98C26.83 26.543 31.015 32 39.507 32c8.656 0 12.308-4.841 12.308-9.313zM27.281 8.697c0 6.113 5.538 7.918 10.133 8.328v-3.446c-3.774-.492-6.564-1.846-6.564-4.841 0-2.954 2.913-5.251 7.713-5.251 4.308 0 7.179 2.133 7.877 5.456h4.103c-.369-3.569-3.815-8.944-11.98-8.944-6.154 0-11.282 3.364-11.282 8.697zM0 .616v3.569h22.482V.616H0zm22.482 13.62H0v3.528h22.482v-3.528zm0 13.58H0v3.569h22.482v-3.569zm37.25-27.2v30.769h-3.569V.616h3.569zm3.405 3.569V.616h6.031c5.785 0 9.477 3.61 9.477 8.574s-3.897 8.574-9.477 8.574h-6.031v-3.569h6.031c3.816 0 5.908-2.051 5.908-5.005s-2.092-5.005-5.908-5.005h-6.031zM86.521.616h-3.569v30.769h3.569V.616zm19.816 8.574c0-4.964-3.692-8.574-9.477-8.574h-6.933v3.569h6.81c3.815 0 5.826 2.256 5.826 5.005 0 2.79-2.01 5.005-5.826 5.005h-6.81v3.569h6.933c5.58 0 9.477-3.61 9.477-8.574zM95.793 20.841l6.974 10.544h4.472l-7.18-10.544h-4.267zM111.464.616h3.569v30.769h-3.569V.616zm7.384 0v3.569h23.303V.616h-23.303zm13.457 30.769V7.508h-3.569v23.877h3.569z" style="fill:var(--color1, #fff)"/></symbol>
<symbol id="Buzz" viewBox="0 0 194 32"><path fill="#fff" d="M19.156 16.459c1.508.117 2.82.757 3.941 1.915 1.115 1.164 1.675 2.759 1.675 4.791 0 2.494-.825 4.483-2.481 5.967-1.656 1.478-4.033 2.223-7.143 2.223H.001V2.181h15.11c2.672 0 4.809.727 6.422 2.18s2.414 3.38 2.414 5.788c0 1.829-.505 3.282-1.521 4.353s-2.106 1.669-3.263 1.786v.172h-.006zm-11.97-2.223h6.268c1.071 0 1.927-.296 2.568-.893s.961-1.385.961-2.371c0-.899-.314-1.626-.936-2.18s-1.398-.825-2.327-.825H7.187v6.268zm6.705 11.323c1.133 0 2.007-.289 2.635-.868.622-.579.936-1.379.936-2.395 0-.961-.32-1.718-.961-2.284s-1.465-.85-2.481-.85H7.185v6.398h6.705zm35.824 5.788h-6.964V29.26C41.008 31.089 38.773 32 36.046 32c-2.555 0-4.606-.837-6.164-2.506-1.552-1.669-2.328-3.867-2.328-6.595V9.494h6.921v11.927c0 1.275.351 2.315 1.047 3.116s1.595 1.195 2.697 1.195c1.422 0 2.531-.499 3.331-1.502s1.195-2.531 1.195-4.593V9.496h6.964v21.853h.006zm21.452 0H52.726v-1.312l8.67-15.012h-8.454V9.494h18.121v1.312l-8.67 15.012h8.774v5.529zm21.452 0H74.178v-1.312l8.67-15.012h-8.46V9.494h18.121v1.312l-8.67 15.012h8.774v5.529h.006zm10.357-16.717h12.598v6.268h-12.598v10.449H95.79V2.179h20.941V8.49h-13.756v6.139zm63.637 7.574h-16.022c.412 2.709 2.438 4.224 5.505 4.224 2.414 0 4.797-.948 6.583-2.321l2.672 4.63c-2.445 2.1-5.616 3.263-9.255 3.263-7.327 0-12.339-4.464-12.339-11.582 0-3.368 1.121-6.139 3.35-8.319 2.235-2.18 4.975-3.263 8.226-3.263 3.165 0 5.818 1.059 7.967 3.177s3.251 4.92 3.307 8.405v1.786h.006zm-14.107-6.792c-.868.61-1.465 1.453-1.786 2.524h9.014c-.32-1.133-.868-1.989-1.656-2.568-.782-.579-1.7-.868-2.74-.868-1.016 0-1.958.302-2.832.911zm-11.367 6.792h-16.021c.413 2.709 2.438 4.224 5.505 4.224 2.414 0 4.797-.948 6.582-2.321l2.672 4.63c-2.444 2.1-5.616 3.263-9.255 3.263-7.327 0-12.339-4.464-12.339-11.582 0-3.368 1.121-6.139 3.35-8.319 2.235-2.18 4.975-3.263 8.226-3.263 3.165 0 5.819 1.059 7.968 3.177s3.251 4.92 3.307 8.405v1.786h.006zm-14.106-6.792c-.868.61-1.465 1.453-1.786 2.524h9.014c-.32-1.133-.868-1.989-1.656-2.568-.782-.579-1.699-.868-2.74-.868-1.022 0-1.964.302-2.832.911zm66.53 15.935H186.6v-1.743c-1.774 1.595-4.034 2.395-6.792 2.395-2.962 0-5.48-1.084-7.555-3.245s-3.115-4.944-3.115-8.337c0-3.368 1.04-6.139 3.115-8.319s4.594-3.263 7.555-3.263c2.758 0 5.024.8 6.792 2.395V-.001h6.963v31.347zm-8.552-6.853c1.059-1.059 1.589-2.414 1.589-4.07 0-1.626-.53-2.974-1.589-4.052-1.059-1.071-2.315-1.613-3.768-1.613-1.541 0-2.802.53-3.787 1.589s-1.478 2.414-1.478 4.07c0 1.681.493 3.048 1.478 4.095s2.246 1.57 3.787 1.57c1.453 0 2.709-.529 3.768-1.589z" style="fill:var(--color1, #fff)"/></symbol>
<symbol id="Swipe" viewBox="0 0 38 32"><path fill="none" stroke="#fafaf9" stroke-linecap="round" stroke-linejoin="round" stroke-width="2.618" d="M1.455 15.599h32.086M20.856 1.565l14.369 14.148-14.369 14.148" style="stroke:var(--color1, #fafaf9)"/></symbol>
<symbol id="running" viewBox="0 0 32 32"><path fill="#fff" d="M29.647 9.451a1.185 1.185 0 0 0-1.667-.149l-3.282 2.757-1.509-3.739a1.163 1.163 0 0 0-.229-.362 3.215 3.215 0 0 0-1.582-1.617 3.247 3.247 0 0 0-.982-.262c-.073-.038-.139-.088-.222-.114l-5.776-1.61a1.19 1.19 0 0 0-.917.125 1.155 1.155 0 0 0-.719.672l-2.175 5.592a1.188 1.188 0 0 0 .676 1.534 1.187 1.187 0 0 0 1.532-.678l1.837-4.722 2.63.731c-.064.104-.133.201-.185.312l-3.372 7.309c-.049.107-.075.217-.109.328l-4.098 6.871-6.859 2.294a1.751 1.751 0 0 0 2.081 2.819l7.018-2.417c.215-.156.371-.36.489-.581.088-.094.189-.168.256-.284l2.443-4.096 4.337 3.696-4.64 5.23a1.75 1.75 0 1 0 2.622 2.32l5.791-6.524a1.72 1.72 0 0 0 .36-.676c.043-.132.043-.269.054-.405 0-.069.026-.132.021-.196a1.72 1.72 0 0 0-.601-1.274l-3.991-3.403c.288-.274.532-.6.709-.983l2.585-5.599.828 2.206c.035.196.101.388.239.549.125.149.284.248.454.317.017.009.038.01.059.016.107.038.217.075.329.08.133.012.269-.005.405-.043l.005-.002c.036-.009.073-.002.109-.017a1.17 1.17 0 0 0 .466-.34l4.71-3.998c.501-.421.289-1.166-.132-1.667zM23.689 6.602a3.301 3.301 0 1 0 0-6.602 3.301 3.301 0 0 0 0 6.602z" style="fill:var(--color2, #fff)"/></symbol>
</defs>
</svg>